<?xml version="1.0" encoding="UTF-8"?>
<svg height="20.0" width="519.8125" xmlns="http://www.w3.org/2000/svg">
 <g>
  <rect x="10.0" y="-215.0" width="7.8125" height="225.0" style="fill:cyan;opacity:0.3;"/>
  <text x="10.0" y="10.0" transform="matrix(6.123233995736766E-17,-1.0,1.0,6.123233995736766E-17,0.0,20.0)" style="font-size:1.0000000000000013px;">United States</text>
  <rect x="17.0" y="-126.0" width="7.8125" height="136.0" style="fill:cyan;opacity:0.3;"/>
  <text x="17.0" y="10.0" transform="matrix(6.123233995736766E-17,-1.0,1.0,6.123233995736766E-17,6.999999999999998,27.0)" style="font-size:1.0000000000000013px;">Australia</text>
  <rect x="25.0" y="-120.0" width="7.8125" height="130.0" style="fill:cyan;opacity:0.3;"/>
  <text x="25.0" y="10.0" transform="matrix(6.123233995736766E-17,-1.0,1.0,6.123233995736766E-17,14.999999999999998,35.0)" style="font-size:1.0000000000000013px;">United States,</text>
  <rect x="33.0" y="-87.0" width="7.8125" height="97.0" style="fill:cyan;opacity:0.3;"/>
  <text x="33.0" y="10.0" transform="matrix(6.123233995736766E-17,-1.0,1.0,6.123233995736766E-17,23.0,43.0)" style="font-size:1.0000000000000013px;">Canada</text>
  <rect x="41.0" y="-58.0" width="7.8125" height="68.0" style="fill:cyan;opacity:0.3;"/>
  <text x="41.0" y="10.0" transform="matrix(6.123233995736766E-17,-1.0,1.0,6.123233995736766E-17,31.0,51.0)" style="font-size:1.0000000000000013px;">China</text>
  <rect x="49.0" y="-34.0" width="7.8125" height="44.0" style="fill:cyan;opacity:0.3;"/>
  <text x="49.0" y="10.0" transform="matrix(6.123233995736766E-17,-1.0,1.0,6.123233995736766E-17,39.0,59.0)" style="font-size:1.0000000000000013px;">United States.</text>
  <rect x="56.0" y="-34.0" width="7.8125" height="44.0" style="fill:cyan;opacity:0.3;"/>
  <text x="56.0" y="10.0" transform="matrix(6.123233995736766E-17,-1.0,1.0,6.123233995736766E-17,46.0,66.0)" style="font-size:1.0000000000000013px;">New Zealand</text>
  <rect x="64.0" y="-31.0" width="7.8125" height="41.0" style="fill:cyan;opacity:0.3;"/>
  <text x="64.0" y="10.0" transform="matrix(6.123233995736766E-17,-1.0,1.0,6.123233995736766E-17,54.0,74.0)" style="font-size:1.0000000000000013px;">Netherlands</text>
  <rect x="72.0" y="-25.0" width="7.8125" height="35.0" style="fill:cyan;opacity:0.3;"/>
  <text x="72.0" y="10.0" transform="matrix(6.123233995736766E-17,-1.0,1.0,6.123233995736766E-17,62.0,82.0)" style="font-size:1.0000000000000013px;">Mexico</text>
  <rect x="80.0" y="-22.0" width="7.8125" height="32.0" style="fill:cyan;opacity:0.3;"/>
  <text x="80.0" y="10.0" transform="matrix(6.123233995736766E-17,-1.0,1.0,6.123233995736766E-17,70.0,90.0)" style="font-size:1.0000000000000013px;">Switzerland</text>
  <rect x="88.0" y="-22.0" width="7.8125" height="32.0" style="fill:cyan;opacity:0.3;"/>
  <text x="88.0" y="10.0" transform="matrix(6.123233995736766E-17,-1.0,1.0,6.123233995736766E-17,78.0,98.0)" style="font-size:1.0000000000000013px;">Spain</text>
  <rect x="95.0" y="-19.0" width="7.8125" height="29.0" style="fill:cyan;opacity:0.3;"/>
  <text x="95.0" y="10.0" transform="matrix(6.123233995736766E-17,-1.0,1.0,6.123233995736766E-17,85.0,105.0)" style="font-size:1.0000000000000013px;">United Kingdom</text>
  <rect x="103.0" y="-16.0" width="7.8125" height="26.0" style="fill:cyan;opacity:0.3;"/>
  <text x="103.0" y="10.0" transform="matrix(6.123233995736766E-17,-1.0,1.0,6.123233995736766E-17,93.0,113.0)" style="font-size:1.0000000000000013px;">Israel</text>
  <rect x="111.0" y="-10.0" width="7.8125" height="20.0" style="fill:cyan;opacity:0.3;"/>
  <text x="111.0" y="10.0" transform="matrix(6.123233995736766E-17,-1.0,1.0,6.123233995736766E-17,101.0,121.0)" style="font-size:1.0000000000000013px;">Italy</text>
  <rect x="119.0" y="-10.0" width="7.8125" height="20.0" style="fill:cyan;opacity:0.3;"/>
  <text x="119.0" y="10.0" transform="matrix(6.123233995736766E-17,-1.0,1.0,6.123233995736766E-17,109.0,129.0)" style="font-size:1.0000000000000013px;">Ireland</text>
  <rect x="127.0" y="-10.0" width="7.8125" height="20.0" style="fill:cyan;opacity:0.3;"/>
  <text x="127.0" y="10.0" transform="matrix(6.123233995736766E-17,-1.0,1.0,6.123233995736766E-17,117.0,137.0)" style="font-size:1.0000000000000013px;">Jordan</text>
  <rect x="135.0" y="-10.0" width="7.8125" height="20.0" style="fill:cyan;opacity:0.3;"/>
  <text x="135.0" y="10.0" transform="matrix(6.123233995736766E-17,-1.0,1.0,6.123233995736766E-17,124.99999999999999,145.0)" style="font-size:1.0000000000000013px;">France</text>
  <rect x="142.0" y="-10.0" width="7.8125" height="20.0" style="fill:cyan;opacity:0.3;"/>
  <text x="142.0" y="10.0" transform="matrix(6.123233995736766E-17,-1.0,1.0,6.123233995736766E-17,132.0,152.0)" style="font-size:1.0000000000000013px;">Norway</text>
  <rect x="150.0" y="-7.0" width="7.8125" height="17.0" style="fill:cyan;opacity:0.3;"/>
  <text x="150.0" y="10.0" transform="matrix(6.123233995736766E-17,-1.0,1.0,6.123233995736766E-17,140.0,160.0)" style="font-size:1.0000000000000013px;">Hong Kong</text>
  <rect x="158.0" y="-4.0" width="7.8125" height="14.0" style="fill:cyan;opacity:0.3;"/>
  <text x="158.0" y="10.0" transform="matrix(6.123233995736766E-17,-1.0,1.0,6.123233995736766E-17,148.0,168.0)" style="font-size:1.0000000000000013px;">Greece</text>
  <rect x="166.0" y="-4.0" width="7.8125" height="14.0" style="fill:cyan;opacity:0.3;"/>
  <text x="166.0" y="10.0" transform="matrix(6.123233995736766E-17,-1.0,1.0,6.123233995736766E-17,156.0,176.0)" style="font-size:1.0000000000000013px;">India</text>
  <rect x="174.0" y="-4.0" width="7.8125" height="14.0" style="fill:cyan;opacity:0.3;"/>
  <text x="174.0" y="10.0" transform="matrix(6.123233995736766E-17,-1.0,1.0,6.123233995736766E-17,164.0,184.0)" style="font-size:1.0000000000000013px;">Turkey</text>
  <rect x="181.0" y="-4.0" width="7.8125" height="14.0" style="fill:cyan;opacity:0.3;"/>
  <text x="181.0" y="10.0" transform="matrix(6.123233995736766E-17,-1.0,1.0,6.123233995736766E-17,171.0,191.0)" style="font-size:1.0000000000000013px;">Finland</text>
  <rect x="189.0" y="-4.0" width="7.8125" height="14.0" style="fill:cyan;opacity:0.3;"/>
  <text x="189.0" y="10.0" transform="matrix(6.123233995736766E-17,-1.0,1.0,6.123233995736766E-17,179.0,199.0)" style="font-size:1.0000000000000013px;">Germany</text>
  <rect x="197.0" y="-4.0" width="7.8125" height="14.0" style="fill:cyan;opacity:0.3;"/>
  <text x="197.0" y="10.0" transform="matrix(6.123233995736766E-17,-1.0,1.0,6.123233995736766E-17,187.0,207.0)" style="font-size:1.0000000000000013px;">Denmark</text>
  <rect x="205.0" y="-1.0" width="7.8125" height="11.0" style="fill:cyan;opacity:0.3;"/>
  <text x="205.0" y="10.0" transform="matrix(6.123233995736766E-17,-1.0,1.0,6.123233995736766E-17,195.0,215.0)" style="font-size:1.0000000000000013px;">Jersey</text>
  <rect x="213.0" y="-1.0" width="7.8125" height="11.0" style="fill:cyan;opacity:0.3;"/>
  <text x="213.0" y="10.0" transform="matrix(6.123233995736766E-17,-1.0,1.0,6.123233995736766E-17,203.0,223.0)" style="font-size:1.0000000000000013px;">Belgium</text>
  <rect x="220.0" y="-1.0" width="7.8125" height="11.0" style="fill:cyan;opacity:0.3;"/>
  <text x="220.0" y="10.0" transform="matrix(6.123233995736766E-17,-1.0,1.0,6.123233995736766E-17,210.0,230.0)" style="font-size:1.0000000000000013px;">Georgia</text>
  <rect x="228.0" y="2.0" width="7.8125" height="8.0" style="fill:cyan;opacity:0.3;"/>
  <text x="228.0" y="10.0" transform="matrix(6.123233995736766E-17,-1.0,1.0,6.123233995736766E-17,218.0,238.0)" style="font-size:1.0000000000000013px;">Malaysia</text>
  <rect x="236.0" y="2.0" width="7.8125" height="8.0" style="fill:cyan;opacity:0.3;"/>
  <text x="236.0" y="10.0" transform="matrix(6.123233995736766E-17,-1.0,1.0,6.123233995736766E-17,226.0,246.0)" style="font-size:1.0000000000000013px;">Portugal</text>
  <rect x="244.0" y="2.0" width="7.8125" height="8.0" style="fill:cyan;opacity:0.3;"/>
  <text x="244.0" y="10.0" transform="matrix(6.123233995736766E-17,-1.0,1.0,6.123233995736766E-17,234.0,254.0)" style="font-size:1.0000000000000013px;">Brazil</text>
  <rect x="252.0" y="2.0" width="7.8125" height="8.0" style="fill:cyan;opacity:0.3;"/>
  <text x="252.0" y="10.0" transform="matrix(6.123233995736766E-17,-1.0,1.0,6.123233995736766E-17,241.99999999999997,262.0)" style="font-size:1.0000000000000013px;">Japan</text>
  <rect x="260.0" y="2.0" width="7.8125" height="8.0" style="fill:cyan;opacity:0.3;"/>
  <text x="260.0" y="10.0" transform="matrix(6.123233995736766E-17,-1.0,1.0,6.123233995736766E-17,249.99999999999997,270.0)" style="font-size:1.0000000000000013px;">New Zealand.</text>
  <rect x="267.0" y="2.0" width="7.8125" height="8.0" style="fill:cyan;opacity:0.3;"/>
  <text x="267.0" y="10.0" transform="matrix(6.123233995736766E-17,-1.0,1.0,6.123233995736766E-17,257.0,277.0)" style="font-size:1.0000000000000013px;">United Kingdom,</text>
  <rect x="275.0" y="2.0" width="7.8125" height="8.0" style="fill:cyan;opacity:0.3;"/>
  <text x="275.0" y="10.0" transform="matrix(6.123233995736766E-17,-1.0,1.0,6.123233995736766E-17,265.0,285.0)" style="font-size:1.0000000000000013px;">Sweden</text>
  <rect x="283.0" y="2.0" width="7.8125" height="8.0" style="fill:cyan;opacity:0.3;"/>
  <text x="283.0" y="10.0" transform="matrix(6.123233995736766E-17,-1.0,1.0,6.123233995736766E-17,273.0,293.0)" style="font-size:1.0000000000000013px;">Poland</text>
  <rect x="291.0" y="5.0" width="7.8125" height="5.0" style="fill:cyan;opacity:0.3;"/>
  <text x="291.0" y="10.0" transform="matrix(6.123233995736766E-17,-1.0,1.0,6.123233995736766E-17,281.0,301.0)" style="font-size:1.0000000000000013px;">Puerto Rico.</text>
  <rect x="299.0" y="5.0" width="7.8125" height="5.0" style="fill:cyan;opacity:0.3;"/>
  <text x="299.0" y="10.0" transform="matrix(6.123233995736766E-17,-1.0,1.0,6.123233995736766E-17,289.0,309.0)" style="font-size:1.0000000000000013px;">United States;</text>
  <rect x="306.0" y="5.0" width="7.8125" height="5.0" style="fill:cyan;opacity:0.3;"/>
  <text x="306.0" y="10.0" transform="matrix(6.123233995736766E-17,-1.0,1.0,6.123233995736766E-17,296.0,316.0)" style="font-size:1.0000000000000013px;">Austria</text>
  <rect x="314.0" y="5.0" width="7.8125" height="5.0" style="fill:cyan;opacity:0.3;"/>
  <text x="314.0" y="10.0" transform="matrix(6.123233995736766E-17,-1.0,1.0,6.123233995736766E-17,304.0,324.0)" style="font-size:1.0000000000000013px;">Hong Kong,</text>
  <rect x="322.0" y="5.0" width="7.8125" height="5.0" style="fill:cyan;opacity:0.3;"/>
  <text x="322.0" y="10.0" transform="matrix(6.123233995736766E-17,-1.0,1.0,6.123233995736766E-17,312.0,332.0)" style="font-size:1.0000000000000013px;">Congo</text>
  <rect x="330.0" y="5.0" width="7.8125" height="5.0" style="fill:cyan;opacity:0.3;"/>
  <text x="330.0" y="10.0" transform="matrix(6.123233995736766E-17,-1.0,1.0,6.123233995736766E-17,320.0,340.0)" style="font-size:1.0000000000000013px;">Russian Federat</text>
  <rect x="338.0" y="5.0" width="7.8125" height="5.0" style="fill:cyan;opacity:0.3;"/>
  <text x="338.0" y="10.0" transform="matrix(6.123233995736766E-17,-1.0,1.0,6.123233995736766E-17,328.0,348.0)" style="font-size:1.0000000000000013px;">South Africa</text>
  <rect x="345.0" y="5.0" width="7.8125" height="5.0" style="fill:cyan;opacity:0.3;"/>
  <text x="345.0" y="10.0" transform="matrix(6.123233995736766E-17,-1.0,1.0,6.123233995736766E-17,335.0,355.0)" style="font-size:1.0000000000000013px;">Trinidad and To</text>
  <rect x="353.0" y="5.0" width="7.8125" height="5.0" style="fill:cyan;opacity:0.3;"/>
  <text x="353.0" y="10.0" transform="matrix(6.123233995736766E-17,-1.0,1.0,6.123233995736766E-17,343.0,363.0)" style="font-size:1.0000000000000013px;">New Zealand,</text>
  <rect x="361.0" y="5.0" width="7.8125" height="5.0" style="fill:cyan;opacity:0.3;"/>
  <text x="361.0" y="10.0" transform="matrix(6.123233995736766E-17,-1.0,1.0,6.123233995736766E-17,351.0,371.0)" style="font-size:1.0000000000000013px;">Peru</text>
  <rect x="369.0" y="5.0" width="7.8125" height="5.0" style="fill:cyan;opacity:0.3;"/>
  <text x="369.0" y="10.0" transform="matrix(6.123233995736766E-17,-1.0,1.0,6.123233995736766E-17,359.0,379.0)" style="font-size:1.0000000000000013px;">Ethiopia</text>
  <rect x="377.0" y="5.0" width="7.8125" height="5.0" style="fill:cyan;opacity:0.3;"/>
  <text x="377.0" y="10.0" transform="matrix(6.123233995736766E-17,-1.0,1.0,6.123233995736766E-17,367.0,387.0)" style="font-size:1.0000000000000013px;">Afghanistan</text>
  <rect x="385.0" y="5.0" width="7.8125" height="5.0" style="fill:cyan;opacity:0.3;"/>
  <text x="385.0" y="10.0" transform="matrix(6.123233995736766E-17,-1.0,1.0,6.123233995736766E-17,375.0,395.0)" style="font-size:1.0000000000000013px;">Qatar</text>
  <rect x="392.0" y="8.0" width="7.8125" height="2.0" style="fill:cyan;opacity:0.3;"/>
  <text x="392.0" y="10.0" transform="matrix(6.123233995736766E-17,-1.0,1.0,6.123233995736766E-17,382.0,402.0)" style="font-size:1.0000000000000013px;">El Salvador,</text>
  <rect x="400.0" y="8.0" width="7.8125" height="2.0" style="fill:cyan;opacity:0.3;"/>
  <text x="400.0" y="10.0" transform="matrix(6.123233995736766E-17,-1.0,1.0,6.123233995736766E-17,390.0,410.0)" style="font-size:1.0000000000000013px;">Luxembourg</text>
  <rect x="408.0" y="8.0" width="7.8125" height="2.0" style="fill:cyan;opacity:0.3;"/>
  <text x="408.0" y="10.0" transform="matrix(6.123233995736766E-17,-1.0,1.0,6.123233995736766E-17,398.0,418.0)" style="font-size:1.0000000000000013px;">Guatemala</text>
  <rect x="416.0" y="8.0" width="7.8125" height="2.0" style="fill:cyan;opacity:0.3;"/>
  <text x="416.0" y="10.0" transform="matrix(6.123233995736766E-17,-1.0,1.0,6.123233995736766E-17,406.0,426.0)" style="font-size:1.0000000000000013px;">Puerto Rico,</text>
  <rect x="424.0" y="8.0" width="7.8125" height="2.0" style="fill:cyan;opacity:0.3;"/>
  <text x="424.0" y="10.0" transform="matrix(6.123233995736766E-17,-1.0,1.0,6.123233995736766E-17,414.0,434.0)" style="font-size:1.0000000000000013px;">Nepal</text>
  <rect x="431.0" y="8.0" width="7.8125" height="2.0" style="fill:cyan;opacity:0.3;"/>
  <text x="431.0" y="10.0" transform="matrix(6.123233995736766E-17,-1.0,1.0,6.123233995736766E-17,421.0,441.0)" style="font-size:1.0000000000000013px;">Ukraine</text>
  <rect x="439.0" y="8.0" width="7.8125" height="2.0" style="fill:cyan;opacity:0.3;"/>
  <text x="439.0" y="10.0" transform="matrix(6.123233995736766E-17,-1.0,1.0,6.123233995736766E-17,429.0,449.0)" style="font-size:1.0000000000000013px;">Singapore</text>
  <rect x="447.0" y="8.0" width="7.8125" height="2.0" style="fill:cyan;opacity:0.3;"/>
  <text x="447.0" y="10.0" transform="matrix(6.123233995736766E-17,-1.0,1.0,6.123233995736766E-17,437.0,457.0)" style="font-size:1.0000000000000013px;">Egypt</text>
  <rect x="455.0" y="8.0" width="7.8125" height="2.0" style="fill:cyan;opacity:0.3;"/>
  <text x="455.0" y="10.0" transform="matrix(6.123233995736766E-17,-1.0,1.0,6.123233995736766E-17,445.0,465.0)" style="font-size:1.0000000000000013px;">Bulgaria</text>
  <rect x="463.0" y="8.0" width="7.8125" height="2.0" style="fill:cyan;opacity:0.3;"/>
  <text x="463.0" y="10.0" transform="matrix(6.123233995736766E-17,-1.0,1.0,6.123233995736766E-17,453.0,473.0)" style="font-size:1.0000000000000013px;">Bhutan</text>
  <rect x="470.0" y="8.0" width="7.8125" height="2.0" style="fill:cyan;opacity:0.3;"/>
  <text x="470.0" y="10.0" transform="matrix(6.123233995736766E-17,-1.0,1.0,6.123233995736766E-17,460.0,480.0)" style="font-size:1.0000000000000013px;">Uruguay</text>
  <rect x="478.0" y="8.0" width="7.8125" height="2.0" style="fill:cyan;opacity:0.3;"/>
  <text x="478.0" y="10.0" transform="matrix(6.123233995736766E-17,-1.0,1.0,6.123233995736766E-17,468.0,488.0)" style="font-size:1.0000000000000013px;">Sri Lanka</text>
  <rect x="486.0" y="8.0" width="7.8125" height="2.0" style="fill:cyan;opacity:0.3;"/>
  <text x="486.0" y="10.0" transform="matrix(6.123233995736766E-17,-1.0,1.0,6.123233995736766E-17,475.99999999999994,496.0)" style="font-size:1.0000000000000013px;">Cuba</text>
  <rect x="494.0" y="8.0" width="7.8125" height="2.0" style="fill:cyan;opacity:0.3;"/>
  <text x="494.0" y="10.0" transform="matrix(6.123233995736766E-17,-1.0,1.0,6.123233995736766E-17,483.99999999999994,504.0)" style="font-size:1.0000000000000013px;">United Kingdom.</text>
  <rect x="502.0" y="8.0" width="7.8125" height="2.0" style="fill:cyan;opacity:0.3;"/>
  <text x="502.0" y="10.0" transform="matrix(6.123233995736766E-17,-1.0,1.0,6.123233995736766E-17,491.99999999999994,512.0)" style="font-size:1.0000000000000013px;">Greenland</text>
 </g>
</svg>
