<?xml version="1.0" encoding="UTF-8"?>
<svg xmlns="http://www.w3.org/2000/svg">
 <g>
  <text x="0.0" y="118.0" style="font-family:Helvetica;font-size:22px;stroke:red;">drugs</text>
  <text x="0.0" y="140.0" style="font-family:Helvetica;font-size:22px;stroke:red;">drugs</text>
  <text x="10.0" y="162.0" title="metformin" style="fill:black;font-family:Helvetica;font-size:13.2px;font-weight:bold;">metformin</text>
  <text x="151.0" y="129.0" transform="matrix(6.123233995736766E-17,-1.0,1.0,6.123233995736766E-17,22.0,280.0)" title="metformin" style="fill:black;font-family:Helvetica;font-size:13.2px;font-weight:bold;">metformin</text>
  <g>
   <rect x="140.0" y="140.0" width="22.0" height="22.0" style="fill:#000;"/>
   <text x="140.0" y="162.0" style="fill:orange;font-family:Helvetica;font-size:13.2px;stroke:orange;stroke-width:0.8;">2</text>
  </g>
  <text x="173.0" y="129.0" transform="matrix(6.123233995736766E-17,-1.0,1.0,6.123233995736766E-17,44.0,302.0)" title="orlistat" style="fill:black;font-family:Helvetica;font-size:13.2px;font-weight:bold;">orlistat</text>
  <g>
   <rect x="162.0" y="140.0" width="22.0" height="22.0" style="fill:#808080;"/>
   <text x="162.0" y="162.0" style="fill:orange;font-family:Helvetica;font-size:13.2px;stroke:orange;stroke-width:0.8;">1</text>
  </g>
  <text x="195.0" y="129.0" transform="matrix(6.123233995736766E-17,-1.0,1.0,6.123233995736766E-17,66.0,324.0)" title="topiramate" style="fill:black;font-family:Helvetica;font-size:13.2px;font-weight:bold;">topiramate</text>
  <g>
   <rect x="184.0" y="140.0" width="22.0" height="22.0" style="fill:#808080;"/>
   <text x="184.0" y="162.0" style="fill:orange;font-family:Helvetica;font-size:13.2px;stroke:orange;stroke-width:0.8;">1</text>
  </g>
  <text x="217.0" y="129.0" transform="matrix(6.123233995736766E-17,-1.0,1.0,6.123233995736766E-17,88.0,346.0)" title="liraglutide" style="fill:black;font-family:Helvetica;font-size:13.2px;font-weight:bold;">liraglutide</text>
  <g>
   <rect x="206.0" y="140.0" width="22.0" height="22.0" style="fill:#808080;"/>
   <text x="206.0" y="162.0" style="fill:orange;font-family:Helvetica;font-size:13.2px;stroke:orange;stroke-width:0.8;">1</text>
  </g>
  <text x="239.0" y="129.0" transform="matrix(6.123233995736766E-17,-1.0,1.0,6.123233995736766E-17,109.99999999999997,368.0)" title="zonisamide" style="fill:black;font-family:Helvetica;font-size:13.2px;font-weight:bold;">zonisamide</text>
  <g>
   <rect x="228.0" y="140.0" width="22.0" height="22.0" style="fill:#808080;"/>
   <text x="228.0" y="162.0" style="fill:orange;font-family:Helvetica;font-size:13.2px;stroke:orange;stroke-width:0.8;">1</text>
  </g>
  <text x="261.0" y="129.0" transform="matrix(6.123233995736766E-17,-1.0,1.0,6.123233995736766E-17,131.99999999999997,390.0)" title="fenfluramine" style="fill:black;font-family:Helvetica;font-size:13.2px;font-weight:bold;">fenfluramine</text>
  <g>
   <rect x="250.0" y="140.0" width="22.0" height="22.0" style="fill:#ffffff;"/>
   <text x="250.0" y="162.0" style="fill:orange;font-family:Helvetica;font-size:13.2px;stroke:orange;stroke-width:0.8;">0</text>
  </g>
  <text x="283.0" y="129.0" transform="matrix(6.123233995736766E-17,-1.0,1.0,6.123233995736766E-17,153.99999999999997,412.0)" title="phentermine" style="fill:black;font-family:Helvetica;font-size:13.2px;font-weight:bold;">phentermine</text>
  <g>
   <rect x="272.0" y="140.0" width="22.0" height="22.0" style="fill:#808080;"/>
   <text x="272.0" y="162.0" style="fill:orange;font-family:Helvetica;font-size:13.2px;stroke:orange;stroke-width:0.8;">1</text>
  </g>
  <text x="305.0" y="129.0" transform="matrix(6.123233995736766E-17,-1.0,1.0,6.123233995736766E-17,175.99999999999997,434.0)" title="glucagon" style="fill:black;font-family:Helvetica;font-size:13.2px;font-weight:bold;">glucagon</text>
  <g>
   <rect x="294.0" y="140.0" width="22.0" height="22.0" style="fill:#808080;"/>
   <text x="294.0" y="162.0" style="fill:orange;font-family:Helvetica;font-size:13.2px;stroke:orange;stroke-width:0.8;">1</text>
  </g>
  <text x="327.0" y="129.0" transform="matrix(6.123233995736766E-17,-1.0,1.0,6.123233995736766E-17,197.99999999999997,456.0)" title="dexfenfluramine" style="fill:black;font-family:Helvetica;font-size:13.2px;font-weight:bold;">dexfenfluramine</text>
  <g>
   <rect x="316.0" y="140.0" width="22.0" height="22.0" style="fill:#ffffff;"/>
   <text x="316.0" y="162.0" style="fill:orange;font-family:Helvetica;font-size:13.2px;stroke:orange;stroke-width:0.8;">0</text>
  </g>
  <text x="349.0" y="129.0" transform="matrix(6.123233995736766E-17,-1.0,1.0,6.123233995736766E-17,219.99999999999997,478.0)" title="dopamine" style="fill:black;font-family:Helvetica;font-size:13.2px;font-weight:bold;">dopamine</text>
  <g>
   <rect x="338.0" y="140.0" width="22.0" height="22.0" style="fill:#ffffff;"/>
   <text x="338.0" y="162.0" style="fill:orange;font-family:Helvetica;font-size:13.2px;stroke:orange;stroke-width:0.8;">0</text>
  </g>
  <text x="10.0" y="184.0" title="orlistat" style="fill:black;font-family:Helvetica;font-size:13.2px;font-weight:bold;">orlistat</text>
  <g>
   <rect x="140.0" y="162.0" width="22.0" height="22.0" style="fill:#808080;"/>
   <text x="140.0" y="184.0" style="fill:orange;font-family:Helvetica;font-size:13.2px;stroke:orange;stroke-width:0.8;">1</text>
  </g>
  <g>
   <rect x="162.0" y="162.0" width="22.0" height="22.0" style="fill:#808080;"/>
   <text x="162.0" y="184.0" style="fill:orange;font-family:Helvetica;font-size:13.2px;stroke:orange;stroke-width:0.8;">1</text>
  </g>
  <g>
   <rect x="184.0" y="162.0" width="22.0" height="22.0" style="fill:#808080;"/>
   <text x="184.0" y="184.0" style="fill:orange;font-family:Helvetica;font-size:13.2px;stroke:orange;stroke-width:0.8;">1</text>
  </g>
  <g>
   <rect x="206.0" y="162.0" width="22.0" height="22.0" style="fill:#808080;"/>
   <text x="206.0" y="184.0" style="fill:orange;font-family:Helvetica;font-size:13.2px;stroke:orange;stroke-width:0.8;">1</text>
  </g>
  <g>
   <rect x="228.0" y="162.0" width="22.0" height="22.0" style="fill:#808080;"/>
   <text x="228.0" y="184.0" style="fill:orange;font-family:Helvetica;font-size:13.2px;stroke:orange;stroke-width:0.8;">1</text>
  </g>
  <g>
   <rect x="250.0" y="162.0" width="22.0" height="22.0" style="fill:#ffffff;"/>
   <text x="250.0" y="184.0" style="fill:orange;font-family:Helvetica;font-size:13.2px;stroke:orange;stroke-width:0.8;">0</text>
  </g>
  <g>
   <rect x="272.0" y="162.0" width="22.0" height="22.0" style="fill:#808080;"/>
   <text x="272.0" y="184.0" style="fill:orange;font-family:Helvetica;font-size:13.2px;stroke:orange;stroke-width:0.8;">1</text>
  </g>
  <g>
   <rect x="294.0" y="162.0" width="22.0" height="22.0" style="fill:#808080;"/>
   <text x="294.0" y="184.0" style="fill:orange;font-family:Helvetica;font-size:13.2px;stroke:orange;stroke-width:0.8;">1</text>
  </g>
  <g>
   <rect x="316.0" y="162.0" width="22.0" height="22.0" style="fill:#ffffff;"/>
   <text x="316.0" y="184.0" style="fill:orange;font-family:Helvetica;font-size:13.2px;stroke:orange;stroke-width:0.8;">0</text>
  </g>
  <g>
   <rect x="338.0" y="162.0" width="22.0" height="22.0" style="fill:#ffffff;"/>
   <text x="338.0" y="184.0" style="fill:orange;font-family:Helvetica;font-size:13.2px;stroke:orange;stroke-width:0.8;">0</text>
  </g>
  <text x="10.0" y="206.0" title="topiramate" style="fill:black;font-family:Helvetica;font-size:13.2px;font-weight:bold;">topiramate</text>
  <g>
   <rect x="140.0" y="184.0" width="22.0" height="22.0" style="fill:#808080;"/>
   <text x="140.0" y="206.0" style="fill:orange;font-family:Helvetica;font-size:13.2px;stroke:orange;stroke-width:0.8;">1</text>
  </g>
  <g>
   <rect x="162.0" y="184.0" width="22.0" height="22.0" style="fill:#808080;"/>
   <text x="162.0" y="206.0" style="fill:orange;font-family:Helvetica;font-size:13.2px;stroke:orange;stroke-width:0.8;">1</text>
  </g>
  <g>
   <rect x="184.0" y="184.0" width="22.0" height="22.0" style="fill:#808080;"/>
   <text x="184.0" y="206.0" style="fill:orange;font-family:Helvetica;font-size:13.2px;stroke:orange;stroke-width:0.8;">1</text>
  </g>
  <g>
   <rect x="206.0" y="184.0" width="22.0" height="22.0" style="fill:#808080;"/>
   <text x="206.0" y="206.0" style="fill:orange;font-family:Helvetica;font-size:13.2px;stroke:orange;stroke-width:0.8;">1</text>
  </g>
  <g>
   <rect x="228.0" y="184.0" width="22.0" height="22.0" style="fill:#808080;"/>
   <text x="228.0" y="206.0" style="fill:orange;font-family:Helvetica;font-size:13.2px;stroke:orange;stroke-width:0.8;">1</text>
  </g>
  <g>
   <rect x="250.0" y="184.0" width="22.0" height="22.0" style="fill:#ffffff;"/>
   <text x="250.0" y="206.0" style="fill:orange;font-family:Helvetica;font-size:13.2px;stroke:orange;stroke-width:0.8;">0</text>
  </g>
  <g>
   <rect x="272.0" y="184.0" width="22.0" height="22.0" style="fill:#808080;"/>
   <text x="272.0" y="206.0" style="fill:orange;font-family:Helvetica;font-size:13.2px;stroke:orange;stroke-width:0.8;">1</text>
  </g>
  <g>
   <rect x="294.0" y="184.0" width="22.0" height="22.0" style="fill:#808080;"/>
   <text x="294.0" y="206.0" style="fill:orange;font-family:Helvetica;font-size:13.2px;stroke:orange;stroke-width:0.8;">1</text>
  </g>
  <g>
   <rect x="316.0" y="184.0" width="22.0" height="22.0" style="fill:#ffffff;"/>
   <text x="316.0" y="206.0" style="fill:orange;font-family:Helvetica;font-size:13.2px;stroke:orange;stroke-width:0.8;">0</text>
  </g>
  <g>
   <rect x="338.0" y="184.0" width="22.0" height="22.0" style="fill:#ffffff;"/>
   <text x="338.0" y="206.0" style="fill:orange;font-family:Helvetica;font-size:13.2px;stroke:orange;stroke-width:0.8;">0</text>
  </g>
  <text x="10.0" y="228.0" title="liraglutide" style="fill:black;font-family:Helvetica;font-size:13.2px;font-weight:bold;">liraglutide</text>
  <g>
   <rect x="140.0" y="206.0" width="22.0" height="22.0" style="fill:#808080;"/>
   <text x="140.0" y="228.0" style="fill:orange;font-family:Helvetica;font-size:13.2px;stroke:orange;stroke-width:0.8;">1</text>
  </g>
  <g>
   <rect x="162.0" y="206.0" width="22.0" height="22.0" style="fill:#808080;"/>
   <text x="162.0" y="228.0" style="fill:orange;font-family:Helvetica;font-size:13.2px;stroke:orange;stroke-width:0.8;">1</text>
  </g>
  <g>
   <rect x="184.0" y="206.0" width="22.0" height="22.0" style="fill:#808080;"/>
   <text x="184.0" y="228.0" style="fill:orange;font-family:Helvetica;font-size:13.2px;stroke:orange;stroke-width:0.8;">1</text>
  </g>
  <g>
   <rect x="206.0" y="206.0" width="22.0" height="22.0" style="fill:#808080;"/>
   <text x="206.0" y="228.0" style="fill:orange;font-family:Helvetica;font-size:13.2px;stroke:orange;stroke-width:0.8;">1</text>
  </g>
  <g>
   <rect x="228.0" y="206.0" width="22.0" height="22.0" style="fill:#808080;"/>
   <text x="228.0" y="228.0" style="fill:orange;font-family:Helvetica;font-size:13.2px;stroke:orange;stroke-width:0.8;">1</text>
  </g>
  <g>
   <rect x="250.0" y="206.0" width="22.0" height="22.0" style="fill:#ffffff;"/>
   <text x="250.0" y="228.0" style="fill:orange;font-family:Helvetica;font-size:13.2px;stroke:orange;stroke-width:0.8;">0</text>
  </g>
  <g>
   <rect x="272.0" y="206.0" width="22.0" height="22.0" style="fill:#808080;"/>
   <text x="272.0" y="228.0" style="fill:orange;font-family:Helvetica;font-size:13.2px;stroke:orange;stroke-width:0.8;">1</text>
  </g>
  <g>
   <rect x="294.0" y="206.0" width="22.0" height="22.0" style="fill:#808080;"/>
   <text x="294.0" y="228.0" style="fill:orange;font-family:Helvetica;font-size:13.2px;stroke:orange;stroke-width:0.8;">1</text>
  </g>
  <g>
   <rect x="316.0" y="206.0" width="22.0" height="22.0" style="fill:#ffffff;"/>
   <text x="316.0" y="228.0" style="fill:orange;font-family:Helvetica;font-size:13.2px;stroke:orange;stroke-width:0.8;">0</text>
  </g>
  <g>
   <rect x="338.0" y="206.0" width="22.0" height="22.0" style="fill:#ffffff;"/>
   <text x="338.0" y="228.0" style="fill:orange;font-family:Helvetica;font-size:13.2px;stroke:orange;stroke-width:0.8;">0</text>
  </g>
  <text x="10.0" y="250.0" title="zonisamide" style="fill:black;font-family:Helvetica;font-size:13.2px;font-weight:bold;">zonisamide</text>
  <g>
   <rect x="140.0" y="228.0" width="22.0" height="22.0" style="fill:#808080;"/>
   <text x="140.0" y="250.0" style="fill:orange;font-family:Helvetica;font-size:13.2px;stroke:orange;stroke-width:0.8;">1</text>
  </g>
  <g>
   <rect x="162.0" y="228.0" width="22.0" height="22.0" style="fill:#808080;"/>
   <text x="162.0" y="250.0" style="fill:orange;font-family:Helvetica;font-size:13.2px;stroke:orange;stroke-width:0.8;">1</text>
  </g>
  <g>
   <rect x="184.0" y="228.0" width="22.0" height="22.0" style="fill:#808080;"/>
   <text x="184.0" y="250.0" style="fill:orange;font-family:Helvetica;font-size:13.2px;stroke:orange;stroke-width:0.8;">1</text>
  </g>
  <g>
   <rect x="206.0" y="228.0" width="22.0" height="22.0" style="fill:#808080;"/>
   <text x="206.0" y="250.0" style="fill:orange;font-family:Helvetica;font-size:13.2px;stroke:orange;stroke-width:0.8;">1</text>
  </g>
  <g>
   <rect x="228.0" y="228.0" width="22.0" height="22.0" style="fill:#808080;"/>
   <text x="228.0" y="250.0" style="fill:orange;font-family:Helvetica;font-size:13.2px;stroke:orange;stroke-width:0.8;">1</text>
  </g>
  <g>
   <rect x="250.0" y="228.0" width="22.0" height="22.0" style="fill:#ffffff;"/>
   <text x="250.0" y="250.0" style="fill:orange;font-family:Helvetica;font-size:13.2px;stroke:orange;stroke-width:0.8;">0</text>
  </g>
  <g>
   <rect x="272.0" y="228.0" width="22.0" height="22.0" style="fill:#808080;"/>
   <text x="272.0" y="250.0" style="fill:orange;font-family:Helvetica;font-size:13.2px;stroke:orange;stroke-width:0.8;">1</text>
  </g>
  <g>
   <rect x="294.0" y="228.0" width="22.0" height="22.0" style="fill:#808080;"/>
   <text x="294.0" y="250.0" style="fill:orange;font-family:Helvetica;font-size:13.2px;stroke:orange;stroke-width:0.8;">1</text>
  </g>
  <g>
   <rect x="316.0" y="228.0" width="22.0" height="22.0" style="fill:#ffffff;"/>
   <text x="316.0" y="250.0" style="fill:orange;font-family:Helvetica;font-size:13.2px;stroke:orange;stroke-width:0.8;">0</text>
  </g>
  <g>
   <rect x="338.0" y="228.0" width="22.0" height="22.0" style="fill:#ffffff;"/>
   <text x="338.0" y="250.0" style="fill:orange;font-family:Helvetica;font-size:13.2px;stroke:orange;stroke-width:0.8;">0</text>
  </g>
  <text x="10.0" y="272.0" title="fenfluramine" style="fill:black;font-family:Helvetica;font-size:13.2px;font-weight:bold;">fenfluramine</text>
  <g>
   <rect x="140.0" y="250.0" width="22.0" height="22.0" style="fill:#ffffff;"/>
   <text x="140.0" y="272.0" style="fill:orange;font-family:Helvetica;font-size:13.2px;stroke:orange;stroke-width:0.8;">0</text>
  </g>
  <g>
   <rect x="162.0" y="250.0" width="22.0" height="22.0" style="fill:#ffffff;"/>
   <text x="162.0" y="272.0" style="fill:orange;font-family:Helvetica;font-size:13.2px;stroke:orange;stroke-width:0.8;">0</text>
  </g>
  <g>
   <rect x="184.0" y="250.0" width="22.0" height="22.0" style="fill:#ffffff;"/>
   <text x="184.0" y="272.0" style="fill:orange;font-family:Helvetica;font-size:13.2px;stroke:orange;stroke-width:0.8;">0</text>
  </g>
  <g>
   <rect x="206.0" y="250.0" width="22.0" height="22.0" style="fill:#ffffff;"/>
   <text x="206.0" y="272.0" style="fill:orange;font-family:Helvetica;font-size:13.2px;stroke:orange;stroke-width:0.8;">0</text>
  </g>
  <g>
   <rect x="228.0" y="250.0" width="22.0" height="22.0" style="fill:#ffffff;"/>
   <text x="228.0" y="272.0" style="fill:orange;font-family:Helvetica;font-size:13.2px;stroke:orange;stroke-width:0.8;">0</text>
  </g>
  <g>
   <rect x="250.0" y="250.0" width="22.0" height="22.0" style="fill:#808080;"/>
   <text x="250.0" y="272.0" style="fill:orange;font-family:Helvetica;font-size:13.2px;stroke:orange;stroke-width:0.8;">1</text>
  </g>
  <g>
   <rect x="272.0" y="250.0" width="22.0" height="22.0" style="fill:#ffffff;"/>
   <text x="272.0" y="272.0" style="fill:orange;font-family:Helvetica;font-size:13.2px;stroke:orange;stroke-width:0.8;">0</text>
  </g>
  <g>
   <rect x="294.0" y="250.0" width="22.0" height="22.0" style="fill:#ffffff;"/>
   <text x="294.0" y="272.0" style="fill:orange;font-family:Helvetica;font-size:13.2px;stroke:orange;stroke-width:0.8;">0</text>
  </g>
  <g>
   <rect x="316.0" y="250.0" width="22.0" height="22.0" style="fill:#808080;"/>
   <text x="316.0" y="272.0" style="fill:orange;font-family:Helvetica;font-size:13.2px;stroke:orange;stroke-width:0.8;">1</text>
  </g>
  <g>
   <rect x="338.0" y="250.0" width="22.0" height="22.0" style="fill:#ffffff;"/>
   <text x="338.0" y="272.0" style="fill:orange;font-family:Helvetica;font-size:13.2px;stroke:orange;stroke-width:0.8;">0</text>
  </g>
  <text x="10.0" y="294.0" title="phentermine" style="fill:black;font-family:Helvetica;font-size:13.2px;font-weight:bold;">phentermine</text>
  <g>
   <rect x="140.0" y="272.0" width="22.0" height="22.0" style="fill:#808080;"/>
   <text x="140.0" y="294.0" style="fill:orange;font-family:Helvetica;font-size:13.2px;stroke:orange;stroke-width:0.8;">1</text>
  </g>
  <g>
   <rect x="162.0" y="272.0" width="22.0" height="22.0" style="fill:#808080;"/>
   <text x="162.0" y="294.0" style="fill:orange;font-family:Helvetica;font-size:13.2px;stroke:orange;stroke-width:0.8;">1</text>
  </g>
  <g>
   <rect x="184.0" y="272.0" width="22.0" height="22.0" style="fill:#808080;"/>
   <text x="184.0" y="294.0" style="fill:orange;font-family:Helvetica;font-size:13.2px;stroke:orange;stroke-width:0.8;">1</text>
  </g>
  <g>
   <rect x="206.0" y="272.0" width="22.0" height="22.0" style="fill:#808080;"/>
   <text x="206.0" y="294.0" style="fill:orange;font-family:Helvetica;font-size:13.2px;stroke:orange;stroke-width:0.8;">1</text>
  </g>
  <g>
   <rect x="228.0" y="272.0" width="22.0" height="22.0" style="fill:#808080;"/>
   <text x="228.0" y="294.0" style="fill:orange;font-family:Helvetica;font-size:13.2px;stroke:orange;stroke-width:0.8;">1</text>
  </g>
  <g>
   <rect x="250.0" y="272.0" width="22.0" height="22.0" style="fill:#ffffff;"/>
   <text x="250.0" y="294.0" style="fill:orange;font-family:Helvetica;font-size:13.2px;stroke:orange;stroke-width:0.8;">0</text>
  </g>
  <g>
   <rect x="272.0" y="272.0" width="22.0" height="22.0" style="fill:#808080;"/>
   <text x="272.0" y="294.0" style="fill:orange;font-family:Helvetica;font-size:13.2px;stroke:orange;stroke-width:0.8;">1</text>
  </g>
  <g>
   <rect x="294.0" y="272.0" width="22.0" height="22.0" style="fill:#808080;"/>
   <text x="294.0" y="294.0" style="fill:orange;font-family:Helvetica;font-size:13.2px;stroke:orange;stroke-width:0.8;">1</text>
  </g>
  <g>
   <rect x="316.0" y="272.0" width="22.0" height="22.0" style="fill:#ffffff;"/>
   <text x="316.0" y="294.0" style="fill:orange;font-family:Helvetica;font-size:13.2px;stroke:orange;stroke-width:0.8;">0</text>
  </g>
  <g>
   <rect x="338.0" y="272.0" width="22.0" height="22.0" style="fill:#ffffff;"/>
   <text x="338.0" y="294.0" style="fill:orange;font-family:Helvetica;font-size:13.2px;stroke:orange;stroke-width:0.8;">0</text>
  </g>
  <text x="10.0" y="316.0" title="glucagon" style="fill:black;font-family:Helvetica;font-size:13.2px;font-weight:bold;">glucagon</text>
  <g>
   <rect x="140.0" y="294.0" width="22.0" height="22.0" style="fill:#808080;"/>
   <text x="140.0" y="316.0" style="fill:orange;font-family:Helvetica;font-size:13.2px;stroke:orange;stroke-width:0.8;">1</text>
  </g>
  <g>
   <rect x="162.0" y="294.0" width="22.0" height="22.0" style="fill:#808080;"/>
   <text x="162.0" y="316.0" style="fill:orange;font-family:Helvetica;font-size:13.2px;stroke:orange;stroke-width:0.8;">1</text>
  </g>
  <g>
   <rect x="184.0" y="294.0" width="22.0" height="22.0" style="fill:#808080;"/>
   <text x="184.0" y="316.0" style="fill:orange;font-family:Helvetica;font-size:13.2px;stroke:orange;stroke-width:0.8;">1</text>
  </g>
  <g>
   <rect x="206.0" y="294.0" width="22.0" height="22.0" style="fill:#808080;"/>
   <text x="206.0" y="316.0" style="fill:orange;font-family:Helvetica;font-size:13.2px;stroke:orange;stroke-width:0.8;">1</text>
  </g>
  <g>
   <rect x="228.0" y="294.0" width="22.0" height="22.0" style="fill:#808080;"/>
   <text x="228.0" y="316.0" style="fill:orange;font-family:Helvetica;font-size:13.2px;stroke:orange;stroke-width:0.8;">1</text>
  </g>
  <g>
   <rect x="250.0" y="294.0" width="22.0" height="22.0" style="fill:#ffffff;"/>
   <text x="250.0" y="316.0" style="fill:orange;font-family:Helvetica;font-size:13.2px;stroke:orange;stroke-width:0.8;">0</text>
  </g>
  <g>
   <rect x="272.0" y="294.0" width="22.0" height="22.0" style="fill:#808080;"/>
   <text x="272.0" y="316.0" style="fill:orange;font-family:Helvetica;font-size:13.2px;stroke:orange;stroke-width:0.8;">1</text>
  </g>
  <g>
   <rect x="294.0" y="294.0" width="22.0" height="22.0" style="fill:#808080;"/>
   <text x="294.0" y="316.0" style="fill:orange;font-family:Helvetica;font-size:13.2px;stroke:orange;stroke-width:0.8;">1</text>
  </g>
  <g>
   <rect x="316.0" y="294.0" width="22.0" height="22.0" style="fill:#ffffff;"/>
   <text x="316.0" y="316.0" style="fill:orange;font-family:Helvetica;font-size:13.2px;stroke:orange;stroke-width:0.8;">0</text>
  </g>
  <g>
   <rect x="338.0" y="294.0" width="22.0" height="22.0" style="fill:#ffffff;"/>
   <text x="338.0" y="316.0" style="fill:orange;font-family:Helvetica;font-size:13.2px;stroke:orange;stroke-width:0.8;">0</text>
  </g>
  <text x="10.0" y="338.0" title="dexfenfluramine" style="fill:black;font-family:Helvetica;font-size:13.2px;font-weight:bold;">dexfenfluramine</text>
  <g>
   <rect x="140.0" y="316.0" width="22.0" height="22.0" style="fill:#ffffff;"/>
   <text x="140.0" y="338.0" style="fill:orange;font-family:Helvetica;font-size:13.2px;stroke:orange;stroke-width:0.8;">0</text>
  </g>
  <g>
   <rect x="162.0" y="316.0" width="22.0" height="22.0" style="fill:#ffffff;"/>
   <text x="162.0" y="338.0" style="fill:orange;font-family:Helvetica;font-size:13.2px;stroke:orange;stroke-width:0.8;">0</text>
  </g>
  <g>
   <rect x="184.0" y="316.0" width="22.0" height="22.0" style="fill:#ffffff;"/>
   <text x="184.0" y="338.0" style="fill:orange;font-family:Helvetica;font-size:13.2px;stroke:orange;stroke-width:0.8;">0</text>
  </g>
  <g>
   <rect x="206.0" y="316.0" width="22.0" height="22.0" style="fill:#ffffff;"/>
   <text x="206.0" y="338.0" style="fill:orange;font-family:Helvetica;font-size:13.2px;stroke:orange;stroke-width:0.8;">0</text>
  </g>
  <g>
   <rect x="228.0" y="316.0" width="22.0" height="22.0" style="fill:#ffffff;"/>
   <text x="228.0" y="338.0" style="fill:orange;font-family:Helvetica;font-size:13.2px;stroke:orange;stroke-width:0.8;">0</text>
  </g>
  <g>
   <rect x="250.0" y="316.0" width="22.0" height="22.0" style="fill:#808080;"/>
   <text x="250.0" y="338.0" style="fill:orange;font-family:Helvetica;font-size:13.2px;stroke:orange;stroke-width:0.8;">1</text>
  </g>
  <g>
   <rect x="272.0" y="316.0" width="22.0" height="22.0" style="fill:#ffffff;"/>
   <text x="272.0" y="338.0" style="fill:orange;font-family:Helvetica;font-size:13.2px;stroke:orange;stroke-width:0.8;">0</text>
  </g>
  <g>
   <rect x="294.0" y="316.0" width="22.0" height="22.0" style="fill:#ffffff;"/>
   <text x="294.0" y="338.0" style="fill:orange;font-family:Helvetica;font-size:13.2px;stroke:orange;stroke-width:0.8;">0</text>
  </g>
  <g>
   <rect x="316.0" y="316.0" width="22.0" height="22.0" style="fill:#808080;"/>
   <text x="316.0" y="338.0" style="fill:orange;font-family:Helvetica;font-size:13.2px;stroke:orange;stroke-width:0.8;">1</text>
  </g>
  <g>
   <rect x="338.0" y="316.0" width="22.0" height="22.0" style="fill:#ffffff;"/>
   <text x="338.0" y="338.0" style="fill:orange;font-family:Helvetica;font-size:13.2px;stroke:orange;stroke-width:0.8;">0</text>
  </g>
  <text x="10.0" y="360.0" title="dopamine" style="fill:black;font-family:Helvetica;font-size:13.2px;font-weight:bold;">dopamine</text>
  <g>
   <rect x="140.0" y="338.0" width="22.0" height="22.0" style="fill:#ffffff;"/>
   <text x="140.0" y="360.0" style="fill:orange;font-family:Helvetica;font-size:13.2px;stroke:orange;stroke-width:0.8;">0</text>
  </g>
  <g>
   <rect x="162.0" y="338.0" width="22.0" height="22.0" style="fill:#ffffff;"/>
   <text x="162.0" y="360.0" style="fill:orange;font-family:Helvetica;font-size:13.2px;stroke:orange;stroke-width:0.8;">0</text>
  </g>
  <g>
   <rect x="184.0" y="338.0" width="22.0" height="22.0" style="fill:#ffffff;"/>
   <text x="184.0" y="360.0" style="fill:orange;font-family:Helvetica;font-size:13.2px;stroke:orange;stroke-width:0.8;">0</text>
  </g>
  <g>
   <rect x="206.0" y="338.0" width="22.0" height="22.0" style="fill:#ffffff;"/>
   <text x="206.0" y="360.0" style="fill:orange;font-family:Helvetica;font-size:13.2px;stroke:orange;stroke-width:0.8;">0</text>
  </g>
  <g>
   <rect x="228.0" y="338.0" width="22.0" height="22.0" style="fill:#ffffff;"/>
   <text x="228.0" y="360.0" style="fill:orange;font-family:Helvetica;font-size:13.2px;stroke:orange;stroke-width:0.8;">0</text>
  </g>
  <g>
   <rect x="250.0" y="338.0" width="22.0" height="22.0" style="fill:#ffffff;"/>
   <text x="250.0" y="360.0" style="fill:orange;font-family:Helvetica;font-size:13.2px;stroke:orange;stroke-width:0.8;">0</text>
  </g>
  <g>
   <rect x="272.0" y="338.0" width="22.0" height="22.0" style="fill:#ffffff;"/>
   <text x="272.0" y="360.0" style="fill:orange;font-family:Helvetica;font-size:13.2px;stroke:orange;stroke-width:0.8;">0</text>
  </g>
  <g>
   <rect x="294.0" y="338.0" width="22.0" height="22.0" style="fill:#ffffff;"/>
   <text x="294.0" y="360.0" style="fill:orange;font-family:Helvetica;font-size:13.2px;stroke:orange;stroke-width:0.8;">0</text>
  </g>
  <g>
   <rect x="316.0" y="338.0" width="22.0" height="22.0" style="fill:#ffffff;"/>
   <text x="316.0" y="360.0" style="fill:orange;font-family:Helvetica;font-size:13.2px;stroke:orange;stroke-width:0.8;">0</text>
  </g>
  <g>
   <rect x="338.0" y="338.0" width="22.0" height="22.0" style="fill:#808080;"/>
   <text x="338.0" y="360.0" style="fill:orange;font-family:Helvetica;font-size:13.2px;stroke:orange;stroke-width:0.8;">1</text>
  </g>
 </g>
</svg>
